<!DOCTYPE svg PUBLIC "-//W3C//DTD SVG 1.1//EN" "http://www.w3.org/Graphics/SVG/1.1/DTD/svg11.dtd">
<!-- Uploaded to: SVG Repo, www.svgrepo.com, Transformed by: SVG Repo Mixer Tools -->
<svg height="800px" width="800px" version="1.1" id="Layer_1" xmlns="http://www.w3.org/2000/svg" xmlns:xlink="http://www.w3.org/1999/xlink" viewBox="0 0 512.007 512.007" xml:space="preserve" fill="#000000">
<g id="SVGRepo_bgCarrier" stroke-width="0"/>
<g id="SVGRepo_tracerCarrier" stroke-linecap="round" stroke-linejoin="round"/>
<g id="SVGRepo_iconCarrier"> <path style="fill:#C6D9B0;" d="M190.114,126.425c-12.578-12.57-19.499-29.286-19.499-47.061s6.921-34.492,19.499-47.07 c12.57-12.57,29.286-19.49,47.061-19.49s34.492,6.921,47.07,19.49c1.263,1.263,2.475,2.577,3.618,3.942 c1.152-1.365,2.355-2.671,3.618-3.934c12.578-12.578,29.295-19.499,47.07-19.499s34.492,6.921,47.061,19.49 c25.95,25.95,25.95,68.173,0.009,94.131l-97.758,97.758L190.114,126.425z"/> <path style="fill:#A0BF7C;" d="M432.683,341.422c-17.775,0-34.492-6.929-47.07-19.499l-97.749-97.741l97.749-97.749 c12.578-12.57,29.286-19.49,47.07-19.49c17.783,0,34.492,6.921,47.061,19.49c12.578,12.57,19.499,29.286,19.499,47.07 s-6.929,34.492-19.499,47.061c-1.263,1.263-2.577,2.475-3.942,3.618c1.365,1.152,2.679,2.355,3.942,3.627 c12.57,12.57,19.499,29.286,19.499,47.061c0,17.775-6.929,34.492-19.499,47.061C467.174,334.502,450.466,341.422,432.683,341.422z"/> <path style="fill:#B3CC96;" d="M143.044,341.422c-17.775,0-34.492-6.929-47.061-19.499c-12.57-12.57-19.499-29.286-19.499-47.061 s6.929-34.492,19.499-47.061c1.263-1.263,2.577-2.475,3.942-3.627c-1.365-1.152-2.679-2.355-3.942-3.618 c-12.57-12.57-19.499-29.286-19.499-47.061s6.921-34.492,19.499-47.07s29.286-19.49,47.061-19.49s34.492,6.921,47.07,19.49 l97.749,97.758l-97.749,97.749C177.545,334.502,160.828,341.422,143.044,341.422z"/> <path style="fill:#788F5D;" d="M338.551,435.554c-17.775,0-34.492-6.921-47.07-19.49c-1.263-1.263-2.475-2.577-3.618-3.942 c-1.152,1.365-2.355,2.671-3.618,3.934c-12.578,12.57-29.286,19.49-47.07,19.49c-17.775,0-34.492-6.921-47.061-19.49 c-12.578-12.578-19.499-29.295-19.499-47.07c0-17.775,6.929-34.492,19.499-47.061l97.749-97.749l97.749,97.749 c12.57,12.57,19.499,29.286,19.499,47.061c0,17.775-6.921,34.492-19.499,47.07S356.326,435.554,338.551,435.554z"/> <path style="fill:#573A32;" d="M102.076,414.476c19.49-10.496,40.132-21.683,56.713-37.743c1.681,17.647,8.781,34.876,22.272,48.375 c14.993,14.993,34.918,23.245,56.115,23.245c18.731,0,36.471-6.443,50.688-18.287c14.217,11.836,31.957,18.287,50.688,18.287 c21.197,0,41.131-8.252,56.115-23.245c19.721-19.721,26.743-47.3,21.325-72.738c5.436,1.161,10.999,1.852,16.691,1.852 c21.197,0,41.131-8.252,56.115-23.245c29.193-29.193,30.839-75.657,4.958-106.803c25.89-31.147,24.235-77.611-4.958-106.803 c-14.993-14.993-34.918-23.245-56.115-23.245c-5.692,0-11.255,0.691-16.691,1.852c5.419-25.438-1.604-53.018-21.325-72.738 C379.674,8.264,359.748,0.004,338.551,0.004c-18.731,0-36.471,6.443-50.688,18.287C273.647,6.446,255.906,0.004,237.175,0.004 c-21.197,0-41.131,8.252-56.115,23.245c-19.721,19.721-26.743,47.3-21.325,72.738c-5.436-1.161-10.999-1.852-16.691-1.852 c-21.197,0-41.131,8.252-56.115,23.245c-29.193,29.193-30.839,75.657-4.958,106.803c-25.89,31.147-24.235,77.611,4.958,106.803 c14.993,14.993,34.918,23.245,56.115,23.245c0.529,0,1.024-0.162,1.553-0.171c-14.054,15.462-33.417,26.436-54.673,37.871 C47.778,414.63,0,440.358,0,512.004h25.6C25.6,455.658,61.022,436.569,102.076,414.476z M376.559,407.01 c-10.496,10.496-24.26,15.744-38.016,15.744c-13.756,0-27.52-5.248-38.016-15.744c-6.016-6.016-10.103-13.15-12.672-20.693 c-2.569,7.543-6.656,14.677-12.672,20.693c-10.496,10.496-24.252,15.744-38.016,15.744c-13.756,0-27.511-5.248-38.016-15.744 c-20.992-20.992-20.992-55.031,0-76.032l0,0l88.695-88.695l88.704,88.704C397.559,351.978,397.559,386.018,376.559,407.01z M432.683,119.735c13.756,0,27.511,5.248,38.016,15.744c20.992,20.992,20.992,55.031,0,76.032 c-6.016,6.016-13.15,10.103-20.693,12.672c7.543,2.569,14.677,6.656,20.693,12.672c20.992,20.992,20.992,55.031,0,76.023 c-10.496,10.496-24.26,15.744-38.016,15.744c-13.756,0-27.52-5.248-38.016-15.744l-88.704-88.695l88.704-88.704 C405.163,124.983,418.918,119.735,432.683,119.735z M199.159,41.348c10.505-10.496,24.26-15.744,38.016-15.744 c13.756,0,27.52,5.248,38.016,15.744c6.016,6.016,10.103,13.15,12.672,20.693c2.569-7.543,6.656-14.677,12.672-20.693 c10.496-10.496,24.252-15.744,38.016-15.744c13.756,0,27.511,5.248,38.016,15.744c20.992,20.992,20.992,55.031,0,76.023l0,0 l-88.704,88.704l-88.704-88.695C178.167,96.388,178.167,62.348,199.159,41.348z M143.044,328.622 c-13.756,0-27.511-5.248-38.016-15.744c-20.992-20.992-20.992-55.031,0-76.023c6.016-6.016,13.15-10.103,20.693-12.672 c-7.543-2.569-14.677-6.656-20.693-12.672c-20.992-20.992-20.992-55.031,0-76.032c10.496-10.496,24.26-15.744,38.016-15.744 c13.756,0,27.52,5.248,38.016,15.744l88.704,88.704l-88.704,88.696C170.564,323.374,156.809,328.622,143.044,328.622z"/> </g>
</svg>